<mxfile host="app.diagrams.net" agent="Mozilla/5.0 (Windows NT 10.0; Win64; x64) AppleWebKit/537.36 (KHTML, like Gecko) Chrome/130.0.0.0 Safari/537.36" version="24.7.7">
  <diagram id="f106602c-feb2-e66a-4537-3a34d633f6aa" name="Page-1">
    <mxGraphModel dx="3455" dy="2194" grid="1" gridSize="10" guides="1" tooltips="1" connect="1" arrows="1" fold="1" page="1" pageScale="1" pageWidth="1169" pageHeight="827" background="none" math="0" shadow="0">
      <root>
        <mxCell id="0" />
        <mxCell id="1" parent="0" />
        <mxCell id="2O25wpToIRTkwOV_ry4V-915" value="" style="sketch=0;points=[[0,0,0],[0.25,0,0],[0.5,0,0],[0.75,0,0],[1,0,0],[1,0.25,0],[1,0.5,0],[1,0.75,0],[1,1,0],[0.75,1,0],[0.5,1,0],[0.25,1,0],[0,1,0],[0,0.75,0],[0,0.5,0],[0,0.25,0]];rounded=1;absoluteArcSize=1;arcSize=2;html=1;strokeColor=#b85450;shadow=0;dashed=0;fontSize=12;align=left;verticalAlign=top;spacing=10;spacingTop=-4;whiteSpace=wrap;fillColor=#F19C99;" vertex="1" parent="1">
          <mxGeometry x="1010" y="85" width="360" height="1900" as="geometry" />
        </mxCell>
        <mxCell id="2O25wpToIRTkwOV_ry4V-916" value="" style="sketch=0;points=[[0,0,0],[0.25,0,0],[0.5,0,0],[0.75,0,0],[1,0,0],[1,0.25,0],[1,0.5,0],[1,0.75,0],[1,1,0],[0.75,1,0],[0.5,1,0],[0.25,1,0],[0,1,0],[0,0.75,0],[0,0.5,0],[0,0.25,0]];rounded=1;absoluteArcSize=1;arcSize=2;html=1;strokeColor=#82b366;shadow=0;dashed=0;fontSize=12;align=left;verticalAlign=top;spacing=10;spacingTop=-4;whiteSpace=wrap;fillColor=#9AC7BF;" vertex="1" parent="1">
          <mxGeometry x="340" y="85" width="710" height="1900" as="geometry" />
        </mxCell>
        <mxCell id="2O25wpToIRTkwOV_ry4V-917" value="" style="sketch=0;points=[[0,0,0],[0.25,0,0],[0.5,0,0],[0.75,0,0],[1,0,0],[1,0.25,0],[1,0.5,0],[1,0.75,0],[1,1,0],[0.75,1,0],[0.5,1,0],[0.25,1,0],[0,1,0],[0,0.75,0],[0,0.5,0],[0,0.25,0]];rounded=1;absoluteArcSize=1;arcSize=2;html=1;strokeColor=none;gradientColor=none;shadow=0;dashed=0;fontSize=12;fontColor=#9E9E9E;align=left;verticalAlign=top;spacing=10;spacingTop=-4;whiteSpace=wrap;fillColor=#E1F5FE;" vertex="1" parent="1">
          <mxGeometry x="-60" y="90" width="400" height="1900" as="geometry" />
        </mxCell>
        <mxCell id="2O25wpToIRTkwOV_ry4V-918" value="Experimental procedures" style="strokeColor=none;shadow=1;strokeWidth=1;rounded=1;absoluteArcSize=1;arcSize=2;fontStyle=1;fillColor=#3399FF;fontColor=#FFFFFF;fillStyle=solid;" vertex="1" parent="1">
          <mxGeometry x="40" y="70" width="260" height="40" as="geometry" />
        </mxCell>
        <mxCell id="2O25wpToIRTkwOV_ry4V-919" value="Material" style="strokeColor=none;shadow=1;strokeWidth=1;rounded=1;absoluteArcSize=1;arcSize=2;fontStyle=1;fillColor=#67ab9f;fillStyle=solid;fontColor=#FFFFFF;" vertex="1" parent="1">
          <mxGeometry x="350" y="70" width="670" height="40" as="geometry" />
        </mxCell>
        <mxCell id="2O25wpToIRTkwOV_ry4V-920" value="Assessment" style="strokeColor=none;shadow=1;strokeWidth=1;rounded=1;absoluteArcSize=1;arcSize=2;fontStyle=1;fillColor=#EA6B66;fillStyle=solid;fontColor=#FFFFFF;" vertex="1" parent="1">
          <mxGeometry x="1040" y="70" width="300" height="40" as="geometry" />
        </mxCell>
        <mxCell id="2O25wpToIRTkwOV_ry4V-921" value="Analysis" style="strokeColor=none;shadow=1;strokeWidth=1;rounded=1;absoluteArcSize=1;arcSize=2;fontStyle=1;fillColor=#FFB570;fillStyle=solid;fontColor=#FFFFFF;" vertex="1" parent="1">
          <mxGeometry x="1525" y="70" width="270" height="40" as="geometry" />
        </mxCell>
        <mxCell id="14" value="&lt;b&gt;Google &lt;/b&gt;Cloud Platform" style="fillColor=#F6F6F6;strokeColor=none;shadow=0;gradientColor=none;fontSize=14;align=left;spacing=10;fontColor=#717171;9E9E9E;verticalAlign=top;spacingTop=-4;fontStyle=0;spacingLeft=40;html=1;container=0;" parent="1" vertex="1">
          <mxGeometry x="2830" y="120" width="430" height="430" as="geometry" />
        </mxCell>
        <mxCell id="711" value="Customer Lists Logic" style="rounded=1;absoluteArcSize=1;arcSize=2;html=1;strokeColor=none;gradientColor=none;shadow=0;dashed=0;strokeColor=none;fontSize=12;fontColor=#9E9E9E;align=left;verticalAlign=top;spacing=10;spacingTop=-4;fillColor=#E1F5FE;" parent="1" vertex="1">
          <mxGeometry x="2850" y="240" width="370" height="100" as="geometry" />
        </mxCell>
        <mxCell id="712" style="edgeStyle=orthogonalEdgeStyle;rounded=0;html=1;labelBackgroundColor=none;startFill=1;startSize=4;endArrow=blockThin;endFill=1;endSize=4;jettySize=auto;orthogonalLoop=1;strokeColor=#4284F3;strokeWidth=2;fontSize=12;fontColor=#000000;align=center;dashed=0;" parent="1" source="705" target="711" edge="1">
          <mxGeometry relative="1" as="geometry">
            <Array as="points">
              <mxPoint x="2800" y="250" />
              <mxPoint x="2800" y="290" />
            </Array>
          </mxGeometry>
        </mxCell>
        <mxCell id="705" value="Campaign Manager" style="rounded=1;absoluteArcSize=1;arcSize=2;html=1;strokeColor=none;gradientColor=none;shadow=0;dashed=0;strokeColor=none;fontSize=12;fontColor=#9E9E9E;align=left;verticalAlign=top;spacing=10;spacingTop=-4;fillColor=#FFF8E1;" parent="1" vertex="1">
          <mxGeometry x="2630" y="190" width="120" height="100" as="geometry" />
        </mxCell>
        <mxCell id="713" style="edgeStyle=orthogonalEdgeStyle;rounded=0;html=1;labelBackgroundColor=none;startFill=1;startSize=4;endArrow=blockThin;endFill=1;endSize=4;jettySize=auto;orthogonalLoop=1;strokeColor=#4284F3;strokeWidth=2;fontSize=12;fontColor=#000000;align=center;dashed=0;" parent="1" source="706" target="711" edge="1">
          <mxGeometry relative="1" as="geometry" />
        </mxCell>
        <mxCell id="706" value="Analytics" style="rounded=1;absoluteArcSize=1;arcSize=2;html=1;strokeColor=none;gradientColor=none;shadow=0;dashed=0;strokeColor=none;fontSize=12;fontColor=#9E9E9E;align=left;verticalAlign=top;spacing=10;spacingTop=-4;fillColor=#FFF8E1;" parent="1" vertex="1">
          <mxGeometry x="2630" y="310" width="120" height="100" as="geometry" />
        </mxCell>
        <mxCell id="714" style="edgeStyle=orthogonalEdgeStyle;rounded=0;html=1;labelBackgroundColor=none;startFill=1;startSize=4;endArrow=blockThin;endFill=1;endSize=4;jettySize=auto;orthogonalLoop=1;strokeColor=#4284F3;strokeWidth=2;fontSize=12;fontColor=#000000;align=center;dashed=0;" parent="1" source="707" target="711" edge="1">
          <mxGeometry relative="1" as="geometry">
            <Array as="points">
              <mxPoint x="2940" y="485" />
            </Array>
          </mxGeometry>
        </mxCell>
        <mxCell id="707" value="Marketing List" style="rounded=1;absoluteArcSize=1;arcSize=2;html=1;strokeColor=none;gradientColor=none;shadow=0;dashed=0;strokeColor=none;fontSize=12;fontColor=#9E9E9E;align=left;verticalAlign=top;spacing=10;spacingTop=-4;fillColor=#F1F8E9;" parent="1" vertex="1">
          <mxGeometry x="2630" y="430" width="120" height="110" as="geometry" />
        </mxCell>
        <mxCell id="689" value="" style="strokeColor=#dddddd;fillColor=#ffffff;shadow=1;strokeWidth=1;rounded=1;absoluteArcSize=1;arcSize=2;fontSize=10;fontColor=#9E9E9E;align=center;html=1;" parent="1" vertex="1">
          <mxGeometry x="2660" y="220" width="60" height="60" as="geometry" />
        </mxCell>
        <mxCell id="690" value="" style="dashed=0;connectable=0;html=1;fillColor=#5184F3;strokeColor=none;shape=mxgraph.gcp2.campaign_manager;part=1;labelPosition=right;verticalLabelPosition=middle;align=left;verticalAlign=middle;spacingLeft=5;fontColor=#999999;fontSize=12;" parent="689" vertex="1">
          <mxGeometry width="45" height="45" relative="1" as="geometry">
            <mxPoint x="5" y="7" as="offset" />
          </mxGeometry>
        </mxCell>
        <mxCell id="693" value="" style="strokeColor=#dddddd;fillColor=#ffffff;shadow=1;strokeWidth=1;rounded=1;absoluteArcSize=1;arcSize=2;fontSize=10;fontColor=#9E9E9E;align=center;html=1;" parent="1" vertex="1">
          <mxGeometry x="2660" y="338" width="60" height="60" as="geometry" />
        </mxCell>
        <mxCell id="694" value="" style="dashed=0;connectable=0;html=1;fillColor=#5184F3;strokeColor=none;shape=mxgraph.gcp2.google_analytics;part=1;labelPosition=right;verticalLabelPosition=middle;align=left;verticalAlign=middle;spacingLeft=5;fontColor=#999999;fontSize=12;" parent="693" vertex="1">
          <mxGeometry width="45" height="45" relative="1" as="geometry">
            <mxPoint x="5" y="7" as="offset" />
          </mxGeometry>
        </mxCell>
        <mxCell id="695" value="" style="strokeColor=#dddddd;fillColor=#ffffff;shadow=1;strokeWidth=1;rounded=1;absoluteArcSize=1;arcSize=2;labelPosition=center;verticalLabelPosition=middle;align=center;verticalAlign=bottom;spacingLeft=0;fontColor=#999999;fontSize=12;whiteSpace=wrap;spacingBottom=2;html=1;" parent="1" vertex="1">
          <mxGeometry x="2660" y="460" width="60" height="67" as="geometry" />
        </mxCell>
        <mxCell id="696" value="" style="dashed=0;connectable=0;html=1;fillColor=#757575;strokeColor=none;shape=mxgraph.gcp2.list;part=1;" parent="695" vertex="1">
          <mxGeometry x="0.5" width="44.5" height="50" relative="1" as="geometry">
            <mxPoint x="-22.25" y="10" as="offset" />
          </mxGeometry>
        </mxCell>
        <mxCell id="715" style="edgeStyle=orthogonalEdgeStyle;rounded=0;html=1;labelBackgroundColor=none;startFill=1;startSize=4;endArrow=blockThin;endFill=1;endSize=4;jettySize=auto;orthogonalLoop=1;strokeColor=#4284F3;strokeWidth=2;fontSize=12;fontColor=#000000;align=center;dashed=0;" parent="1" source="bN5QILnUEAshqW3xWmmT-748" target="bN5QILnUEAshqW3xWmmT-752" edge="1">
          <mxGeometry relative="1" as="geometry" />
        </mxCell>
        <mxCell id="719" style="edgeStyle=orthogonalEdgeStyle;rounded=0;html=1;labelBackgroundColor=none;startFill=1;startSize=4;endArrow=blockThin;endFill=1;endSize=4;jettySize=auto;orthogonalLoop=1;strokeColor=#4284F3;strokeWidth=2;fontSize=12;fontColor=#000000;align=center;dashed=0;" parent="1" source="bN5QILnUEAshqW3xWmmT-750" target="705" edge="1">
          <mxGeometry relative="1" as="geometry">
            <Array as="points">
              <mxPoint x="3120" y="180" />
              <mxPoint x="3020" y="180" />
              <mxPoint x="3020" y="220" />
            </Array>
          </mxGeometry>
        </mxCell>
        <mxCell id="716" style="edgeStyle=orthogonalEdgeStyle;rounded=0;html=1;labelBackgroundColor=none;startFill=1;startSize=4;endArrow=blockThin;endFill=1;endSize=4;jettySize=auto;orthogonalLoop=1;strokeColor=#4284F3;strokeWidth=2;fontSize=12;fontColor=#000000;align=center;dashed=0;" parent="1" source="bN5QILnUEAshqW3xWmmT-752" target="bN5QILnUEAshqW3xWmmT-750" edge="1">
          <mxGeometry relative="1" as="geometry">
            <Array as="points">
              <mxPoint x="3240" y="300" />
              <mxPoint x="3240" y="180" />
            </Array>
          </mxGeometry>
        </mxCell>
        <mxCell id="717" style="edgeStyle=orthogonalEdgeStyle;rounded=0;html=1;labelBackgroundColor=none;startFill=1;startSize=4;endArrow=blockThin;endFill=1;endSize=4;jettySize=auto;orthogonalLoop=1;strokeColor=#4284F3;strokeWidth=2;fontSize=12;fontColor=#000000;align=center;dashed=0;" parent="1" source="bN5QILnUEAshqW3xWmmT-752" target="bN5QILnUEAshqW3xWmmT-754" edge="1">
          <mxGeometry relative="1" as="geometry">
            <Array as="points">
              <mxPoint x="3240" y="300" />
              <mxPoint x="3240" y="390" />
            </Array>
          </mxGeometry>
        </mxCell>
        <mxCell id="bN5QILnUEAshqW3xWmmT-748" value="" style="strokeColor=#dddddd;shadow=1;strokeWidth=1;rounded=1;absoluteArcSize=1;arcSize=2;" parent="1" vertex="1">
          <mxGeometry x="2860" y="270" width="160" height="60" as="geometry" />
        </mxCell>
        <mxCell id="bN5QILnUEAshqW3xWmmT-749" value="&lt;font color=&quot;#000000&quot;&gt;Export Ad Data&lt;/font&gt;&lt;br&gt;Cloud Storage" style="editableCssRules=.*;html=1;fontColor=#999999;shape=image;verticalLabelPosition=middle;verticalAlign=middle;labelPosition=right;align=left;spacingLeft=20;part=1;points=[];imageAspect=0;image=data:image/svg+xml,PHN2ZyB4bWxucz0iaHR0cDovL3d3dy53My5vcmcvMjAwMC9zdmciIHhtbG5zOnY9Imh0dHBzOi8vdmVjdGEuaW8vbmFubyIgd2lkdGg9IjIwIiBoZWlnaHQ9IjE2IiB2aWV3Qm94PSIwIDAgMjAgMTYiPiYjeGE7CTxzdHlsZSB0eXBlPSJ0ZXh0L2NzcyI+JiN4YTsJLnN0MHtmaWxsOiM0Mjg1ZjQ7fSYjeGE7CS5zdDF7ZmlsbDojNjY5ZGY2O30mI3hhOwkuc3Qye2ZpbGw6I2FlY2JmYTt9JiN4YTsJLnN0M3tmaWxsOiNmZmY7fSYjeGE7CTwvc3R5bGU+JiN4YTsJPHBhdGggY2xhc3M9InN0MiIgZD0iTTAgMGgyMHY3SDB6Ii8+JiN4YTsJPHBhdGggY2xhc3M9InN0MSIgZD0iTTE4IDBoMnY3aC0yeiIvPiYjeGE7CTxwYXRoIGNsYXNzPSJzdDAiIGQ9Ik0xOCA3bDItN2gtMnoiLz4mI3hhOwk8cGF0aCBjbGFzcz0ic3QxIiBkPSJNMCAwaDJ2N0gweiIvPiYjeGE7CTxnIGNsYXNzPSJzdDMiPiYjeGE7CQk8cGF0aCBkPSJNNCAzaDZ2MUg0eiIvPiYjeGE7CQk8cmVjdCB4PSIxMyIgeT0iMiIgd2lkdGg9IjMiIGhlaWdodD0iMyIgcng9IjEuNSIvPiYjeGE7CTwvZz4mI3hhOwk8cGF0aCBjbGFzcz0ic3QyIiBkPSJNMCA5aDIwdjdIMHoiLz4mI3hhOwk8cGF0aCBjbGFzcz0ic3QxIiBkPSJNMTggOWgydjdoLTJ6Ii8+JiN4YTsJPHBhdGggY2xhc3M9InN0MCIgZD0iTTE4IDE2bDItN2gtMnoiLz4mI3hhOwk8cGF0aCBjbGFzcz0ic3QxIiBkPSJNMCA5aDJ2N0gweiIvPiYjeGE7CTxnIGNsYXNzPSJzdDMiPiYjeGE7CQk8cGF0aCBkPSJNNCAxMmg2djFINHoiLz4mI3hhOwkJPHJlY3QgeD0iMTMiIHk9IjExIiB3aWR0aD0iMyIgaGVpZ2h0PSIzIiByeD0iMS41Ii8+JiN4YTsJPC9nPiYjeGE7PC9zdmc+;" parent="bN5QILnUEAshqW3xWmmT-748" vertex="1">
          <mxGeometry width="30" height="24" relative="1" as="geometry">
            <mxPoint x="15" y="18" as="offset" />
          </mxGeometry>
        </mxCell>
        <mxCell id="bN5QILnUEAshqW3xWmmT-752" value="" style="strokeColor=#dddddd;shadow=1;strokeWidth=1;rounded=1;absoluteArcSize=1;arcSize=2;" parent="1" vertex="1">
          <mxGeometry x="3045" y="270" width="160" height="60" as="geometry" />
        </mxCell>
        <mxCell id="bN5QILnUEAshqW3xWmmT-753" value="&lt;font color=&quot;#000000&quot;&gt;Id matching&lt;/font&gt;&lt;br&gt;Cloud Dataflow" style="editableCssRules=.*;html=1;fontColor=#999999;shape=image;verticalLabelPosition=middle;verticalAlign=middle;labelPosition=right;align=left;spacingLeft=20;part=1;points=[];imageAspect=0;image=data:image/svg+xml,PHN2ZyB4bWxucz0iaHR0cDovL3d3dy53My5vcmcvMjAwMC9zdmciIHhtbG5zOnY9Imh0dHBzOi8vdmVjdGEuaW8vbmFubyIgd2lkdGg9IjE0LjUxOTk5OTUwNDA4OTM1NSIgaGVpZ2h0PSIyMCIgdmlld0JveD0iMCAwIDE0LjUxOTk5OTUwNDA4OTM1NSAyMCI+JiN4YTsJPHN0eWxlIHR5cGU9InRleHQvY3NzIj4mI3hhOwkuc3Qwe2ZpbGwtcnVsZTpldmVub2RkfSYjeGE7CS5zdDF7ZmlsbDojNjY5ZGY2O30mI3hhOwkuc3Qye2ZpbGw6I2FlY2JmYTt9JiN4YTsJLnN0M3tmaWxsOiM0Mjg1ZjQ7fSYjeGE7CTwvc3R5bGU+JiN4YTsJPGcgY2xhc3M9InN0MCI+JiN4YTsJCTxwYXRoIGNsYXNzPSJzdDEiIGQ9Ik03LjM3IDIuMDNsLTEuNzIuOTYgMS41MiAxLjUtLjAyIDEuNzMgMS4wMi4wMS4wMi0xLjczIDQuMjQgMi41Ni0uMDEgMS4wNyAxLjc3LjAzVjYuMTFMOS4wNSAzLjA0bC0uMjctLjk0eiIvPiYjeGE7CQk8cGF0aCBjbGFzcz0ic3QyIiBkPSJNNy4zNiAyLjAzbC0xLjQyLjM1LS4yOS42MUwuMzkgNS45Mi4zNiA3Ljk3IDIuMTQgOGwuMDItMS4wNyA0LjMxLTIuNDUtLjAyIDEuNzMuODYuMDEuMDYtNC4xOXoiLz4mI3hhOwkJPGcgY2xhc3M9InN0MSI+JiN4YTsJCQk8cGF0aCBkPSJNNy4zNiAyLjAzTDMuOTUgMCAyLjIxLjk1bDMuNDQgMi4wNCAxLjcyLS45NnptLjcxIDExLjc2bC0xLjcyLS4wMi0uMDIgMS43Mi44MiAyLjQ4IDEuNDItLjEyLjI5LS44NSA1LjI3LTIuOTMuMDMtMi4wOS0xLjc5LS4wMi0uMDIgMS4xLTQuMyAyLjQ1eiIvPiYjeGE7CQkJPHBhdGggZD0iTTcuMTUgMTcuOTdsLTMuNDYgMS45NGgtLjA1bC0xLjY2LS45OSAzLjQ5LTEuOTYgMS42OCAxLjAxeiIvPiYjeGE7CQk8L2c+JiN4YTsJCTxwYXRoIGNsYXNzPSJzdDMiIGQ9Ik0xMC44OC4wOWgtLjA1TDcuMzcgMi4wM2wxLjY4IDEuMDEgMy40OS0xLjk2ek0xMC42MiAyMGgtLjA1bC0zLjQyLTIuMDNoMCAwIDBsMS43Mi0uOTYgMy40NCAyLjA0eiIvPiYjeGE7CQk8cGF0aCBjbGFzcz0ic3QyIiBkPSJNLjMzIDEzLjg5di0yaDEuNzZsLS4wMSAxLjA0IDQuMjUgMi41Ni4wMi0xLjcyLjg2LjAxLS4wNiA0LjE4LTEuNjgtMXoiLz4mI3hhOwk8L2c+JiN4YTsJPGNpcmNsZSBjbGFzcz0ic3QyIiBjeD0iMTMuMzgiIGN5PSIxMC4wNCIgcj0iMS4xNCIvPiYjeGE7CTxjaXJjbGUgY2xhc3M9InN0MiIgY3g9IjEuMTQiIGN5PSI5Ljg4IiByPSIxLjE0Ii8+JiN4YTsJPGNpcmNsZSBjbGFzcz0ic3QyIiBjeD0iNy4zMiIgY3k9IjcuOTkiIHI9IjEuMTQiLz4mI3hhOwk8Y2lyY2xlIGNsYXNzPSJzdDIiIGN4PSI3LjIzIiBjeT0iMTIiIHI9IjEuMTQiLz4mI3hhOzwvc3ZnPg==;" parent="bN5QILnUEAshqW3xWmmT-752" vertex="1">
          <mxGeometry width="22" height="30" relative="1" as="geometry">
            <mxPoint x="19" y="15" as="offset" />
          </mxGeometry>
        </mxCell>
        <mxCell id="15" value="" style="shape=mxgraph.gcp2.google_cloud_platform;fillColor=#F6F6F6;strokeColor=none;shadow=0;gradientColor=none;" parent="1" vertex="1">
          <mxGeometry x="2850" y="130" width="23" height="20" as="geometry">
            <mxPoint x="20" y="10" as="offset" />
          </mxGeometry>
        </mxCell>
        <mxCell id="bN5QILnUEAshqW3xWmmT-750" value="" style="strokeColor=#dddddd;shadow=1;strokeWidth=1;rounded=1;absoluteArcSize=1;arcSize=2;" parent="1" vertex="1">
          <mxGeometry x="3045" y="150" width="160" height="60" as="geometry" />
        </mxCell>
        <mxCell id="bN5QILnUEAshqW3xWmmT-751" value="&lt;font color=&quot;#000000&quot;&gt;Relevant Users&lt;/font&gt;&lt;br&gt;Cloud Storage" style="editableCssRules=.*;html=1;fontColor=#999999;shape=image;verticalLabelPosition=middle;verticalAlign=middle;labelPosition=right;align=left;spacingLeft=20;part=1;points=[];imageAspect=0;image=data:image/svg+xml,PHN2ZyB4bWxucz0iaHR0cDovL3d3dy53My5vcmcvMjAwMC9zdmciIHhtbG5zOnY9Imh0dHBzOi8vdmVjdGEuaW8vbmFubyIgd2lkdGg9IjIwIiBoZWlnaHQ9IjE2IiB2aWV3Qm94PSIwIDAgMjAgMTYiPiYjeGE7CTxzdHlsZSB0eXBlPSJ0ZXh0L2NzcyI+JiN4YTsJLnN0MHtmaWxsOiM0Mjg1ZjQ7fSYjeGE7CS5zdDF7ZmlsbDojNjY5ZGY2O30mI3hhOwkuc3Qye2ZpbGw6I2FlY2JmYTt9JiN4YTsJLnN0M3tmaWxsOiNmZmY7fSYjeGE7CTwvc3R5bGU+JiN4YTsJPHBhdGggY2xhc3M9InN0MiIgZD0iTTAgMGgyMHY3SDB6Ii8+JiN4YTsJPHBhdGggY2xhc3M9InN0MSIgZD0iTTE4IDBoMnY3aC0yeiIvPiYjeGE7CTxwYXRoIGNsYXNzPSJzdDAiIGQ9Ik0xOCA3bDItN2gtMnoiLz4mI3hhOwk8cGF0aCBjbGFzcz0ic3QxIiBkPSJNMCAwaDJ2N0gweiIvPiYjeGE7CTxnIGNsYXNzPSJzdDMiPiYjeGE7CQk8cGF0aCBkPSJNNCAzaDZ2MUg0eiIvPiYjeGE7CQk8cmVjdCB4PSIxMyIgeT0iMiIgd2lkdGg9IjMiIGhlaWdodD0iMyIgcng9IjEuNSIvPiYjeGE7CTwvZz4mI3hhOwk8cGF0aCBjbGFzcz0ic3QyIiBkPSJNMCA5aDIwdjdIMHoiLz4mI3hhOwk8cGF0aCBjbGFzcz0ic3QxIiBkPSJNMTggOWgydjdoLTJ6Ii8+JiN4YTsJPHBhdGggY2xhc3M9InN0MCIgZD0iTTE4IDE2bDItN2gtMnoiLz4mI3hhOwk8cGF0aCBjbGFzcz0ic3QxIiBkPSJNMCA5aDJ2N0gweiIvPiYjeGE7CTxnIGNsYXNzPSJzdDMiPiYjeGE7CQk8cGF0aCBkPSJNNCAxMmg2djFINHoiLz4mI3hhOwkJPHJlY3QgeD0iMTMiIHk9IjExIiB3aWR0aD0iMyIgaGVpZ2h0PSIzIiByeD0iMS41Ii8+JiN4YTsJPC9nPiYjeGE7PC9zdmc+;" parent="bN5QILnUEAshqW3xWmmT-750" vertex="1">
          <mxGeometry width="30" height="24" relative="1" as="geometry">
            <mxPoint x="15" y="18" as="offset" />
          </mxGeometry>
        </mxCell>
        <mxCell id="bN5QILnUEAshqW3xWmmT-754" value="" style="strokeColor=#dddddd;shadow=1;strokeWidth=1;rounded=1;absoluteArcSize=1;arcSize=2;" parent="1" vertex="1">
          <mxGeometry x="3045" y="360" width="160" height="60" as="geometry" />
        </mxCell>
        <mxCell id="bN5QILnUEAshqW3xWmmT-755" value="&lt;font color=&quot;#000000&quot;&gt;Reference Table&lt;/font&gt;&lt;br&gt;BigQuery" style="editableCssRules=.*;html=1;fontColor=#999999;shape=image;verticalLabelPosition=middle;verticalAlign=middle;labelPosition=right;align=left;spacingLeft=20;part=1;points=[];imageAspect=0;image=data:image/svg+xml,PHN2ZyB4bWxucz0iaHR0cDovL3d3dy53My5vcmcvMjAwMC9zdmciIHhtbG5zOnY9Imh0dHBzOi8vdmVjdGEuaW8vbmFubyIgd2lkdGg9IjIwLjAwMTA0NTIyNzA1MDc4IiBoZWlnaHQ9IjIwLjAwMTA0NTIyNzA1MDc4IiBmaWxsLXJ1bGU9ImV2ZW5vZGQiIHZpZXdCb3g9IjAgMCAyMC4wMDEwNDUyMjcwNTA3OCAyMC4wMDEwNDUyMjcwNTA3OCI+JiN4YTsJPHN0eWxlIHR5cGU9InRleHQvY3NzIj4mI3hhOwkuc3Qwe2ZpbGw6I2FlY2JmYTt9JiN4YTsJLnN0MXtmaWxsOiM2NjlkZjY7fSYjeGE7CS5zdDJ7ZmlsbDojNDI4NWY0O30mI3hhOwk8L3N0eWxlPiYjeGE7CTxwYXRoIGNsYXNzPSJzdDAiIGQ9Ik00LjczIDguODN2Mi42M2E0LjkxIDQuOTEgMCAwIDAgMS43MSAxLjc0VjguODN6Ii8+JiN4YTsJPHBhdGggY2xhc3M9InN0MSIgZD0iTTcuODkgNi40MXY3LjUzQTcuNjIgNy42MiAwIDAgMCA5IDE0YTggOCAwIDAgMCAxIDBWNi40MXoiLz4mI3hhOwk8cGF0aCBjbGFzcz0ic3QwIiBkPSJNMTEuNjQgOS44NnYzLjI5YTUgNSAwIDAgMCAxLjctMS44MlY5Ljg2eiIvPiYjeGE7CTxwYXRoIGNsYXNzPSJzdDIiIGQ9Ik0xNS43NCAxNC4zMmwtMS40MiAxLjQyYS40Mi40MiAwIDAgMCAwIC42bDMuNTQgMy41NGEuNDIuNDIgMCAwIDAgLjU5IDBsMS40My0xLjQzYS40Mi40MiAwIDAgMCAwLS41OWwtMy41NC0zLjU0YS40Mi40MiAwIDAgMC0uNiAwIi8+JiN4YTsJPHBhdGggY2xhc3M9InN0MSIgZD0iTTkgMGE5IDkgMCAxIDAgMCAxOEE5IDkgMCAxIDAgOSAwbTAgMTUuNjlhNi42OCA2LjY4IDAgMCAxIC4wMDctMTMuMzYgNi42OCA2LjY4IDAgMCAxIDQuNzI3IDExLjQwM0E2LjY4IDYuNjggMCAwIDEgOSAxNS42OSIvPiYjeGE7PC9zdmc+;" parent="bN5QILnUEAshqW3xWmmT-754" vertex="1">
          <mxGeometry width="30" height="30" relative="1" as="geometry">
            <mxPoint x="15" y="15" as="offset" />
          </mxGeometry>
        </mxCell>
        <mxCell id="2O25wpToIRTkwOV_ry4V-747" value="Application" style="strokeColor=#dddddd;shadow=1;strokeWidth=1;rounded=1;absoluteArcSize=1;arcSize=2;labelPosition=center;verticalLabelPosition=middle;align=center;verticalAlign=bottom;spacingLeft=0;fontColor=#999999;fontSize=12;whiteSpace=wrap;spacingBottom=2;html=1;" vertex="1" parent="1">
          <mxGeometry x="2650" y="880" width="70" height="85" as="geometry" />
        </mxCell>
        <mxCell id="2O25wpToIRTkwOV_ry4V-748" value="" style="sketch=0;dashed=0;connectable=0;html=1;fillColor=#757575;strokeColor=none;shape=mxgraph.gcp2.application;part=1;" vertex="1" parent="2O25wpToIRTkwOV_ry4V-747">
          <mxGeometry x="0.5" width="50" height="40" relative="1" as="geometry">
            <mxPoint x="-25" y="15" as="offset" />
          </mxGeometry>
        </mxCell>
        <mxCell id="2O25wpToIRTkwOV_ry4V-749" value="Database" style="strokeColor=#dddddd;shadow=1;strokeWidth=1;rounded=1;absoluteArcSize=1;arcSize=2;labelPosition=center;verticalLabelPosition=middle;align=center;verticalAlign=bottom;spacingLeft=0;fontColor=#999999;fontSize=12;whiteSpace=wrap;spacingBottom=2;html=1;" vertex="1" parent="1">
          <mxGeometry x="2650" y="750" width="70" height="85" as="geometry" />
        </mxCell>
        <mxCell id="2O25wpToIRTkwOV_ry4V-750" value="" style="sketch=0;dashed=0;connectable=0;html=1;fillColor=#757575;strokeColor=none;shape=mxgraph.gcp2.database;part=1;" vertex="1" parent="2O25wpToIRTkwOV_ry4V-749">
          <mxGeometry x="0.5" width="50" height="45" relative="1" as="geometry">
            <mxPoint x="-25" y="12.5" as="offset" />
          </mxGeometry>
        </mxCell>
        <mxCell id="2O25wpToIRTkwOV_ry4V-751" value="Desktop and Mobile" style="strokeColor=#dddddd;shadow=1;strokeWidth=1;rounded=1;absoluteArcSize=1;arcSize=2;labelPosition=center;verticalLabelPosition=middle;align=center;verticalAlign=bottom;spacingLeft=0;fontColor=#999999;fontSize=12;whiteSpace=wrap;spacingBottom=2;html=1;" vertex="1" parent="1">
          <mxGeometry x="2650" y="1010" width="70" height="100" as="geometry" />
        </mxCell>
        <mxCell id="2O25wpToIRTkwOV_ry4V-752" value="" style="sketch=0;dashed=0;connectable=0;html=1;fillColor=#757575;strokeColor=none;shape=mxgraph.gcp2.desktop_and_mobile;part=1;" vertex="1" parent="2O25wpToIRTkwOV_ry4V-751">
          <mxGeometry x="0.5" width="50" height="33" relative="1" as="geometry">
            <mxPoint x="-25" y="18.5" as="offset" />
          </mxGeometry>
        </mxCell>
        <mxCell id="2O25wpToIRTkwOV_ry4V-753" value="List" style="strokeColor=#dddddd;shadow=1;strokeWidth=1;rounded=1;absoluteArcSize=1;arcSize=2;labelPosition=center;verticalLabelPosition=middle;align=center;verticalAlign=bottom;spacingLeft=0;fontColor=#999999;fontSize=12;whiteSpace=wrap;spacingBottom=2;html=1;" vertex="1" parent="1">
          <mxGeometry x="2650" y="620" width="70" height="85" as="geometry" />
        </mxCell>
        <mxCell id="2O25wpToIRTkwOV_ry4V-754" value="" style="sketch=0;dashed=0;connectable=0;html=1;fillColor=#757575;strokeColor=none;shape=mxgraph.gcp2.list;part=1;" vertex="1" parent="2O25wpToIRTkwOV_ry4V-753">
          <mxGeometry x="0.5" width="44.5" height="50" relative="1" as="geometry">
            <mxPoint x="-22.25" y="10" as="offset" />
          </mxGeometry>
        </mxCell>
        <mxCell id="2O25wpToIRTkwOV_ry4V-991" value="Search system &amp; tools" style="strokeColor=none;shadow=1;strokeWidth=1;rounded=1;absoluteArcSize=1;arcSize=2;fontStyle=1;fillColor=#FF0AFF;fontColor=#FFFFFF;fillStyle=solid;" vertex="1" parent="1">
          <mxGeometry x="-380" y="70" width="260" height="40" as="geometry" />
        </mxCell>
        <mxCell id="2O25wpToIRTkwOV_ry4V-940" value="실험 절차" parent="0" />
        <mxCell id="2O25wpToIRTkwOV_ry4V-941" value="" style="strokeColor=#666666;shadow=1;strokeWidth=1;rounded=1;absoluteArcSize=1;arcSize=2;fontStyle=1;fillColor=#f5f5f5;fontColor=#333333;" vertex="1" parent="2O25wpToIRTkwOV_ry4V-940">
          <mxGeometry x="5" y="1822.5" width="1350" height="117.5" as="geometry" />
        </mxCell>
        <mxCell id="2O25wpToIRTkwOV_ry4V-942" value="" style="strokeColor=#666666;shadow=1;strokeWidth=1;rounded=1;absoluteArcSize=1;arcSize=2;fontStyle=1;fillColor=#f5f5f5;fontColor=#333333;" vertex="1" parent="2O25wpToIRTkwOV_ry4V-940">
          <mxGeometry x="5" y="1640" width="1350" height="160" as="geometry" />
        </mxCell>
        <mxCell id="2O25wpToIRTkwOV_ry4V-943" value="" style="strokeColor=#666666;shadow=1;strokeWidth=1;rounded=1;absoluteArcSize=1;arcSize=2;fontStyle=1;fillColor=#f5f5f5;fontColor=#333333;" vertex="1" parent="2O25wpToIRTkwOV_ry4V-940">
          <mxGeometry x="5" y="1500" width="1350" height="120" as="geometry" />
        </mxCell>
        <mxCell id="2O25wpToIRTkwOV_ry4V-944" value="" style="strokeColor=#666666;shadow=1;strokeWidth=1;rounded=1;absoluteArcSize=1;arcSize=2;fontStyle=1;fillColor=#f5f5f5;fontColor=#333333;" vertex="1" parent="2O25wpToIRTkwOV_ry4V-940">
          <mxGeometry x="5" y="1170" width="1350" height="310" as="geometry" />
        </mxCell>
        <mxCell id="2O25wpToIRTkwOV_ry4V-945" value="" style="strokeColor=#666666;shadow=1;strokeWidth=1;rounded=1;absoluteArcSize=1;arcSize=2;fontStyle=1;fillColor=#f5f5f5;fontColor=#333333;" vertex="1" parent="2O25wpToIRTkwOV_ry4V-940">
          <mxGeometry y="940" width="1350" height="190" as="geometry" />
        </mxCell>
        <mxCell id="2O25wpToIRTkwOV_ry4V-946" value="" style="strokeColor=#666666;shadow=1;strokeWidth=1;rounded=1;absoluteArcSize=1;arcSize=2;fontStyle=1;fillColor=#f5f5f5;fontColor=#333333;" vertex="1" parent="2O25wpToIRTkwOV_ry4V-940">
          <mxGeometry y="700" width="1350" height="190" as="geometry" />
        </mxCell>
        <mxCell id="2O25wpToIRTkwOV_ry4V-947" value="" style="strokeColor=#666666;shadow=1;strokeWidth=1;rounded=1;absoluteArcSize=1;arcSize=2;fontStyle=1;fillColor=#f5f5f5;fontColor=#333333;" vertex="1" parent="2O25wpToIRTkwOV_ry4V-940">
          <mxGeometry x="-5" y="590" width="1350" height="90" as="geometry" />
        </mxCell>
        <mxCell id="2O25wpToIRTkwOV_ry4V-948" value="" style="strokeColor=#666666;shadow=1;strokeWidth=1;rounded=1;absoluteArcSize=1;arcSize=2;fontStyle=1;fillColor=#f5f5f5;fontColor=#333333;" vertex="1" parent="2O25wpToIRTkwOV_ry4V-940">
          <mxGeometry x="-5" y="480" width="1350" height="90" as="geometry" />
        </mxCell>
        <mxCell id="2O25wpToIRTkwOV_ry4V-949" value="" style="strokeColor=#666666;shadow=1;strokeWidth=1;rounded=1;absoluteArcSize=1;arcSize=2;fontStyle=1;fillColor=#f5f5f5;fontColor=#333333;" vertex="1" parent="2O25wpToIRTkwOV_ry4V-940">
          <mxGeometry x="-10" y="353" width="1350" height="90" as="geometry" />
        </mxCell>
        <mxCell id="2O25wpToIRTkwOV_ry4V-950" value="" style="strokeColor=#666666;shadow=1;strokeWidth=1;rounded=1;absoluteArcSize=1;arcSize=2;fontStyle=1;fillColor=#f5f5f5;fontColor=#333333;" vertex="1" parent="2O25wpToIRTkwOV_ry4V-940">
          <mxGeometry x="-10" y="130" width="1350" height="90" as="geometry" />
        </mxCell>
        <mxCell id="2O25wpToIRTkwOV_ry4V-951" value="" style="strokeColor=#666666;shadow=1;strokeWidth=1;rounded=1;absoluteArcSize=1;arcSize=2;fontStyle=1;fillColor=#f5f5f5;fontColor=#333333;" vertex="1" parent="2O25wpToIRTkwOV_ry4V-940">
          <mxGeometry x="-10" y="240" width="1350" height="90" as="geometry" />
        </mxCell>
        <mxCell id="2O25wpToIRTkwOV_ry4V-952" value="Post-Task Questionnaire" style="strokeColor=#dddddd;shadow=1;strokeWidth=1;rounded=1;absoluteArcSize=1;arcSize=2;fontStyle=1;fontSize=13;" vertex="1" parent="2O25wpToIRTkwOV_ry4V-940">
          <mxGeometry x="46.25" y="1654" width="260" height="120" as="geometry" />
        </mxCell>
        <mxCell id="2O25wpToIRTkwOV_ry4V-953" value="" style="strokeColor=#dddddd;shadow=1;strokeWidth=1;rounded=1;absoluteArcSize=1;arcSize=2;fontStyle=1;fontSize=13;" vertex="1" parent="2O25wpToIRTkwOV_ry4V-940">
          <mxGeometry x="40" y="990" width="300" height="110" as="geometry" />
        </mxCell>
        <mxCell id="2O25wpToIRTkwOV_ry4V-954" value="Introduction &amp; Consent" style="strokeColor=#dddddd;shadow=1;strokeWidth=1;rounded=1;absoluteArcSize=1;arcSize=2;fontStyle=1" vertex="1" parent="2O25wpToIRTkwOV_ry4V-940">
          <mxGeometry x="40" y="140" width="260" height="60" as="geometry" />
        </mxCell>
        <mxCell id="2O25wpToIRTkwOV_ry4V-955" value="Demographics Questionnaire" style="strokeColor=#dddddd;shadow=1;strokeWidth=1;rounded=1;absoluteArcSize=1;arcSize=2;fontStyle=1;fontSize=13;" vertex="1" parent="2O25wpToIRTkwOV_ry4V-940">
          <mxGeometry x="40" y="250" width="260" height="60" as="geometry" />
        </mxCell>
        <mxCell id="2O25wpToIRTkwOV_ry4V-956" value="Think-Aloud Practice Task" style="strokeColor=#dddddd;shadow=1;strokeWidth=1;rounded=1;absoluteArcSize=1;arcSize=2;fontStyle=1;fontSize=13;" vertex="1" parent="2O25wpToIRTkwOV_ry4V-940">
          <mxGeometry x="40" y="370" width="260" height="60" as="geometry" />
        </mxCell>
        <mxCell id="2O25wpToIRTkwOV_ry4V-957" value="Pre-Task Learning Assessment" style="strokeColor=#dddddd;shadow=1;strokeWidth=1;rounded=1;absoluteArcSize=1;arcSize=2;fontStyle=1;fontSize=13;" vertex="1" parent="2O25wpToIRTkwOV_ry4V-940">
          <mxGeometry x="46.25" y="490" width="260" height="60" as="geometry" />
        </mxCell>
        <mxCell id="2O25wpToIRTkwOV_ry4V-958" value="Task Description" style="strokeColor=#dddddd;shadow=1;strokeWidth=1;rounded=1;absoluteArcSize=1;arcSize=2;fontStyle=1;fontSize=13;" vertex="1" parent="2O25wpToIRTkwOV_ry4V-940">
          <mxGeometry x="60" y="600" width="260" height="60" as="geometry" />
        </mxCell>
        <mxCell id="2O25wpToIRTkwOV_ry4V-959" value="Pre-Task Questionnaire" style="strokeColor=#dddddd;shadow=1;strokeWidth=1;rounded=1;absoluteArcSize=1;arcSize=2;fontStyle=1;fontSize=13;" vertex="1" parent="2O25wpToIRTkwOV_ry4V-940">
          <mxGeometry x="57.5" y="760" width="260" height="60" as="geometry" />
        </mxCell>
        <mxCell id="2O25wpToIRTkwOV_ry4V-960" value="Video Tutorial" style="strokeColor=#dddddd;shadow=1;strokeWidth=1;rounded=1;absoluteArcSize=1;arcSize=2;fontStyle=1;fontSize=13;" vertex="1" parent="2O25wpToIRTkwOV_ry4V-940">
          <mxGeometry x="60" y="960" width="260" height="60" as="geometry" />
        </mxCell>
        <mxCell id="2O25wpToIRTkwOV_ry4V-961" value="SGF" style="strokeColor=#666666;shadow=1;strokeWidth=1;rounded=1;absoluteArcSize=1;arcSize=2;fontStyle=1;fillColor=#D9D9D9;fontColor=#333333;fontSize=14;" vertex="1" parent="2O25wpToIRTkwOV_ry4V-940">
          <mxGeometry x="60" y="1030" width="120" height="60" as="geometry" />
        </mxCell>
        <mxCell id="2O25wpToIRTkwOV_ry4V-962" value="No-SGF" style="strokeColor=#666666;shadow=1;strokeWidth=1;rounded=1;absoluteArcSize=1;arcSize=2;fontStyle=1;fillColor=#D9D9D9;fontColor=#333333;fontSize=14;" vertex="1" parent="2O25wpToIRTkwOV_ry4V-940">
          <mxGeometry x="200" y="1030" width="120" height="60" as="geometry" />
        </mxCell>
        <mxCell id="2O25wpToIRTkwOV_ry4V-963" value="" style="sketch=0;dashed=0;connectable=0;html=1;fillColor=#757575;strokeColor=none;shape=mxgraph.gcp2.users;part=1;fontStyle=1" vertex="1" parent="2O25wpToIRTkwOV_ry4V-940">
          <mxGeometry x="160" y="1040" width="60" height="40" as="geometry" />
        </mxCell>
        <mxCell id="2O25wpToIRTkwOV_ry4V-964" value="Search Task" style="strokeColor=#d6b656;shadow=1;strokeWidth=1;rounded=1;absoluteArcSize=1;arcSize=2;fontStyle=1;fontSize=13;fillColor=#fff2cc;" vertex="1" parent="2O25wpToIRTkwOV_ry4V-940">
          <mxGeometry x="57.5" y="1530" width="260" height="60" as="geometry" />
        </mxCell>
        <mxCell id="2O25wpToIRTkwOV_ry4V-965" value="Subgoal Setting" style="strokeColor=#dddddd;shadow=1;strokeWidth=1;rounded=1;absoluteArcSize=1;arcSize=2;fontStyle=1;fontSize=13;" vertex="1" parent="2O25wpToIRTkwOV_ry4V-940">
          <mxGeometry x="60" y="1190" width="260" height="260" as="geometry" />
        </mxCell>
        <mxCell id="2O25wpToIRTkwOV_ry4V-966" value="Post-Task Learning Assessments" style="strokeColor=#dddddd;shadow=1;strokeWidth=1;rounded=1;absoluteArcSize=1;arcSize=2;fontStyle=1;fontSize=13;" vertex="1" parent="2O25wpToIRTkwOV_ry4V-940">
          <mxGeometry x="47.5" y="1842.5" width="260" height="60" as="geometry" />
        </mxCell>
        <mxCell id="2O25wpToIRTkwOV_ry4V-793" value="Material" parent="0" />
        <mxCell id="2O25wpToIRTkwOV_ry4V-847" value="" style="strokeColor=#dddddd;shadow=1;strokeWidth=1;rounded=1;absoluteArcSize=1;arcSize=2;fontStyle=1;fontSize=13;" vertex="1" parent="2O25wpToIRTkwOV_ry4V-793">
          <mxGeometry x="612.5" y="975" width="305" height="140" as="geometry" />
        </mxCell>
        <mxCell id="2O25wpToIRTkwOV_ry4V-798" value="연구 목적 및 실험 절차 설명 동영상" style="strokeColor=#6c8ebf;shadow=1;strokeWidth=1;rounded=1;absoluteArcSize=1;arcSize=2;fontStyle=1;imageHeight=21;fillColor=#dae8fc;" vertex="1" parent="2O25wpToIRTkwOV_ry4V-793">
          <mxGeometry x="615" y="140" width="260" height="30" as="geometry" />
        </mxCell>
        <mxCell id="2O25wpToIRTkwOV_ry4V-799" value="참여에 대한 동의서" style="strokeColor=#6c8ebf;shadow=1;strokeWidth=1;rounded=1;absoluteArcSize=1;arcSize=2;fontStyle=1;imageHeight=21;fillColor=#dae8fc;" vertex="1" parent="2O25wpToIRTkwOV_ry4V-793">
          <mxGeometry x="615" y="170" width="260" height="30" as="geometry" />
        </mxCell>
        <mxCell id="2O25wpToIRTkwOV_ry4V-802" value="Think-Aloud 방식 설명" style="strokeColor=#6c8ebf;shadow=1;strokeWidth=1;rounded=1;absoluteArcSize=1;arcSize=2;fontStyle=1;fillColor=#dae8fc;" vertex="1" parent="2O25wpToIRTkwOV_ry4V-793">
          <mxGeometry x="635" y="368" width="260" height="30" as="geometry" />
        </mxCell>
        <mxCell id="2O25wpToIRTkwOV_ry4V-803" value="연습 과제" style="strokeColor=#6c8ebf;shadow=1;strokeWidth=1;rounded=1;absoluteArcSize=1;arcSize=2;fontStyle=1;fillColor=#dae8fc;" vertex="1" parent="2O25wpToIRTkwOV_ry4V-793">
          <mxGeometry x="635" y="399" width="260" height="30" as="geometry" />
        </mxCell>
        <mxCell id="2O25wpToIRTkwOV_ry4V-804" value="시나리오" style="strokeColor=#6c8ebf;shadow=1;strokeWidth=1;rounded=1;absoluteArcSize=1;arcSize=2;fontStyle=1;fillColor=#dae8fc;" vertex="1" parent="2O25wpToIRTkwOV_ry4V-793">
          <mxGeometry x="642.5" y="600" width="260" height="30" as="geometry" />
        </mxCell>
        <mxCell id="2O25wpToIRTkwOV_ry4V-805" value="검색 과제" style="strokeColor=#6c8ebf;shadow=1;strokeWidth=1;rounded=1;absoluteArcSize=1;arcSize=2;fontStyle=1;fillColor=#dae8fc;" vertex="1" parent="2O25wpToIRTkwOV_ry4V-793">
          <mxGeometry x="647.5" y="640" width="260" height="30" as="geometry" />
        </mxCell>
        <mxCell id="2O25wpToIRTkwOV_ry4V-807" value="설문지" style="strokeColor=#82b366;shadow=1;strokeWidth=1;rounded=1;absoluteArcSize=1;arcSize=2;fontStyle=1;fillColor=#d5e8d4;" vertex="1" parent="2O25wpToIRTkwOV_ry4V-793">
          <mxGeometry x="635" y="772.5" width="260" height="30" as="geometry" />
        </mxCell>
        <mxCell id="2O25wpToIRTkwOV_ry4V-810" value="설문지" style="strokeColor=#82b366;shadow=1;strokeWidth=1;rounded=1;absoluteArcSize=1;arcSize=2;fontStyle=1;fillColor=#d5e8d4;" vertex="1" parent="2O25wpToIRTkwOV_ry4V-793">
          <mxGeometry x="630" y="270" width="260" height="30" as="geometry" />
        </mxCell>
        <mxCell id="2O25wpToIRTkwOV_ry4V-811" value="ODCA" style="strokeColor=#82b366;shadow=1;strokeWidth=1;rounded=1;absoluteArcSize=1;arcSize=2;fontStyle=1;fillColor=#d5e8d4;" vertex="1" parent="2O25wpToIRTkwOV_ry4V-793">
          <mxGeometry x="641.25" y="510" width="260" height="30" as="geometry" />
        </mxCell>
        <mxCell id="2O25wpToIRTkwOV_ry4V-813" value="subgoal manager, 검색 도구 기능 설명" style="strokeColor=#6c8ebf;shadow=1;strokeWidth=1;rounded=1;absoluteArcSize=1;arcSize=2;fontStyle=1;fillColor=#dae8fc;" vertex="1" parent="2O25wpToIRTkwOV_ry4V-793">
          <mxGeometry x="637.5" y="1015" width="260" height="20" as="geometry" />
        </mxCell>
        <mxCell id="2O25wpToIRTkwOV_ry4V-814" value="좋은 하위 목표의 설명" style="strokeColor=#6c8ebf;shadow=1;strokeWidth=1;rounded=1;absoluteArcSize=1;arcSize=2;fontStyle=1;fillColor=#dae8fc;" vertex="1" parent="2O25wpToIRTkwOV_ry4V-793">
          <mxGeometry x="637.5" y="1035" width="260" height="20" as="geometry" />
        </mxCell>
        <mxCell id="2O25wpToIRTkwOV_ry4V-837" value="No-SGF" style="strokeColor=#666666;shadow=1;strokeWidth=1;rounded=1;absoluteArcSize=1;arcSize=2;fontStyle=1;fillColor=#D9D9D9;fontColor=#333333;fontSize=14;" vertex="1" parent="2O25wpToIRTkwOV_ry4V-793">
          <mxGeometry x="777.5" y="995" width="120" height="20" as="geometry" />
        </mxCell>
        <mxCell id="2O25wpToIRTkwOV_ry4V-842" value="SGF" style="strokeColor=#666666;shadow=1;strokeWidth=1;rounded=1;absoluteArcSize=1;arcSize=2;fontStyle=1;fillColor=#D9D9D9;fontColor=#333333;fontSize=14;" vertex="1" parent="2O25wpToIRTkwOV_ry4V-793">
          <mxGeometry x="637.5" y="995" width="120" height="20" as="geometry" />
        </mxCell>
        <mxCell id="2O25wpToIRTkwOV_ry4V-843" value="하위 목표 설정 지시" style="strokeColor=#6c8ebf;shadow=1;strokeWidth=1;rounded=1;absoluteArcSize=1;arcSize=2;fontStyle=1;fillColor=#dae8fc;" vertex="1" parent="2O25wpToIRTkwOV_ry4V-793">
          <mxGeometry x="637.5" y="1055" width="260" height="20" as="geometry" />
        </mxCell>
        <mxCell id="2O25wpToIRTkwOV_ry4V-845" value="3개 이상" style="strokeColor=#6c8ebf;shadow=1;strokeWidth=1;rounded=1;absoluteArcSize=1;arcSize=2;fontStyle=1;fillColor=#7EA6E0;fontSize=9;" vertex="1" parent="2O25wpToIRTkwOV_ry4V-793">
          <mxGeometry x="777.5" y="1075" width="120" height="30" as="geometry" />
        </mxCell>
        <mxCell id="2O25wpToIRTkwOV_ry4V-846" value="SMART 모든 요소 1점 이상&#xa;하위 목표 3개 이상" style="strokeColor=#6c8ebf;shadow=1;strokeWidth=1;rounded=1;absoluteArcSize=1;arcSize=2;fontStyle=1;fillColor=#7EA6E0;fontSize=9;" vertex="1" parent="2O25wpToIRTkwOV_ry4V-793">
          <mxGeometry x="637.5" y="1075" width="120" height="30" as="geometry" />
        </mxCell>
        <mxCell id="2O25wpToIRTkwOV_ry4V-848" value="Video" style="strokeColor=#6c8ebf;shadow=1;strokeWidth=1;rounded=1;absoluteArcSize=1;arcSize=2;fontStyle=1;fillColor=#dae8fc;" vertex="1" parent="2O25wpToIRTkwOV_ry4V-793">
          <mxGeometry x="635" y="955" width="260" height="30" as="geometry" />
        </mxCell>
        <mxCell id="2O25wpToIRTkwOV_ry4V-852" value="" style="strokeColor=#dddddd;shadow=1;strokeWidth=1;rounded=1;absoluteArcSize=1;arcSize=2;fontStyle=1;fontSize=13;" vertex="1" parent="2O25wpToIRTkwOV_ry4V-793">
          <mxGeometry x="560" y="1240" width="450" height="175" as="geometry" />
        </mxCell>
        <mxCell id="2O25wpToIRTkwOV_ry4V-853" value="No-SGF" style="strokeColor=#666666;shadow=1;strokeWidth=1;rounded=1;absoluteArcSize=1;arcSize=2;fontStyle=1;fillColor=#D9D9D9;fontColor=#333333;fontSize=14;" vertex="1" parent="2O25wpToIRTkwOV_ry4V-793">
          <mxGeometry x="770" y="1260" width="120" height="20" as="geometry" />
        </mxCell>
        <mxCell id="2O25wpToIRTkwOV_ry4V-854" value="SGF" style="strokeColor=#666666;shadow=1;strokeWidth=1;rounded=1;absoluteArcSize=1;arcSize=2;fontStyle=1;fillColor=#D9D9D9;fontColor=#333333;fontSize=14;" vertex="1" parent="2O25wpToIRTkwOV_ry4V-793">
          <mxGeometry x="630" y="1260" width="120" height="20" as="geometry" />
        </mxCell>
        <mxCell id="2O25wpToIRTkwOV_ry4V-815" value="subgoal manager 도구" style="strokeColor=#6c8ebf;shadow=1;strokeWidth=1;rounded=1;absoluteArcSize=1;arcSize=2;fontStyle=1;fillColor=#dae8fc;" vertex="1" parent="2O25wpToIRTkwOV_ry4V-793">
          <mxGeometry x="630" y="1220" width="260" height="30" as="geometry" />
        </mxCell>
        <mxCell id="2O25wpToIRTkwOV_ry4V-863" style="edgeStyle=orthogonalEdgeStyle;rounded=0;orthogonalLoop=1;jettySize=auto;html=1;exitX=0.5;exitY=1;exitDx=0;exitDy=0;" edge="1" parent="2O25wpToIRTkwOV_ry4V-793" source="2O25wpToIRTkwOV_ry4V-849">
          <mxGeometry relative="1" as="geometry">
            <mxPoint x="680" y="1440" as="targetPoint" />
          </mxGeometry>
        </mxCell>
        <mxCell id="2O25wpToIRTkwOV_ry4V-864" value="Pass" style="edgeLabel;html=1;align=center;verticalAlign=middle;resizable=0;points=[];" vertex="1" connectable="0" parent="2O25wpToIRTkwOV_ry4V-863">
          <mxGeometry x="-0.1849" y="1" relative="1" as="geometry">
            <mxPoint as="offset" />
          </mxGeometry>
        </mxCell>
        <mxCell id="2O25wpToIRTkwOV_ry4V-849" value="subgoal 평가 점수&#xa;(SMART 각 요소 1~3점)" style="strokeColor=#6c8ebf;shadow=1;strokeWidth=1;rounded=1;absoluteArcSize=1;arcSize=2;fontStyle=1;fillColor=#dae8fc;fontSize=8;" vertex="1" parent="2O25wpToIRTkwOV_ry4V-793">
          <mxGeometry x="580" y="1370" width="200" height="30" as="geometry" />
        </mxCell>
        <mxCell id="2O25wpToIRTkwOV_ry4V-862" style="edgeStyle=orthogonalEdgeStyle;rounded=0;orthogonalLoop=1;jettySize=auto;html=1;exitX=0.5;exitY=0;exitDx=0;exitDy=0;" edge="1" parent="2O25wpToIRTkwOV_ry4V-793" source="2O25wpToIRTkwOV_ry4V-855" target="2O25wpToIRTkwOV_ry4V-857">
          <mxGeometry relative="1" as="geometry">
            <Array as="points">
              <mxPoint x="470" y="1320" />
              <mxPoint x="470" y="1305" />
            </Array>
          </mxGeometry>
        </mxCell>
        <mxCell id="2O25wpToIRTkwOV_ry4V-855" value="Feedback&#xa;&quot;T가 없어서 0점, T 요소를 추가하세요&quot;&quot;" style="strokeColor=#6c8ebf;shadow=1;strokeWidth=1;rounded=1;absoluteArcSize=1;arcSize=2;fontStyle=1;fillColor=#dae8fc;fontSize=8;" vertex="1" parent="2O25wpToIRTkwOV_ry4V-793">
          <mxGeometry x="380" y="1320" width="170" height="30" as="geometry" />
        </mxCell>
        <mxCell id="2O25wpToIRTkwOV_ry4V-860" value="" style="edgeStyle=orthogonalEdgeStyle;rounded=0;orthogonalLoop=1;jettySize=auto;html=1;exitX=0;exitY=0.5;exitDx=0;exitDy=0;" edge="1" parent="2O25wpToIRTkwOV_ry4V-793" source="2O25wpToIRTkwOV_ry4V-849" target="2O25wpToIRTkwOV_ry4V-855">
          <mxGeometry relative="1" as="geometry">
            <Array as="points">
              <mxPoint x="470" y="1385" />
            </Array>
          </mxGeometry>
        </mxCell>
        <mxCell id="2O25wpToIRTkwOV_ry4V-861" value="Fail" style="edgeLabel;html=1;align=center;verticalAlign=middle;resizable=0;points=[];" vertex="1" connectable="0" parent="2O25wpToIRTkwOV_ry4V-860">
          <mxGeometry x="-0.175" y="-1" relative="1" as="geometry">
            <mxPoint as="offset" />
          </mxGeometry>
        </mxCell>
        <mxCell id="2O25wpToIRTkwOV_ry4V-856" value="검사" style="strokeColor=#9673a6;shadow=1;strokeWidth=1;rounded=1;absoluteArcSize=1;arcSize=2;fontStyle=1;fillColor=#e1d5e7;fontSize=8;" vertex="1" parent="2O25wpToIRTkwOV_ry4V-793">
          <mxGeometry x="580" y="1330" width="200" height="30" as="geometry" />
        </mxCell>
        <mxCell id="2O25wpToIRTkwOV_ry4V-857" value="하위 목표 설정" style="strokeColor=#82b366;shadow=1;strokeWidth=1;rounded=1;absoluteArcSize=1;arcSize=2;fontStyle=1;fillColor=#d5e8d4;" vertex="1" parent="2O25wpToIRTkwOV_ry4V-793">
          <mxGeometry x="580" y="1290" width="360" height="30" as="geometry" />
        </mxCell>
        <mxCell id="2O25wpToIRTkwOV_ry4V-858" value="X" style="shadow=1;strokeWidth=1;rounded=1;absoluteArcSize=1;arcSize=2;fontStyle=1;fontSize=8;strokeColor=none;" vertex="1" parent="2O25wpToIRTkwOV_ry4V-793">
          <mxGeometry x="790" y="1330" width="200" height="75" as="geometry" />
        </mxCell>
        <mxCell id="2O25wpToIRTkwOV_ry4V-865" value="Think-Aloud" style="strokeColor=#82b366;shadow=1;strokeWidth=1;rounded=1;absoluteArcSize=1;arcSize=2;fontStyle=1;fillColor=#d5e8d4;" vertex="1" parent="2O25wpToIRTkwOV_ry4V-793">
          <mxGeometry x="632.5" y="1560" width="260" height="30" as="geometry" />
        </mxCell>
        <mxCell id="2O25wpToIRTkwOV_ry4V-866" value="화면 녹화" style="strokeColor=#82b366;shadow=1;strokeWidth=1;rounded=1;absoluteArcSize=1;arcSize=2;fontStyle=1;fillColor=#d5e8d4;" vertex="1" parent="2O25wpToIRTkwOV_ry4V-793">
          <mxGeometry x="632.5" y="1520" width="260" height="30" as="geometry" />
        </mxCell>
        <mxCell id="2O25wpToIRTkwOV_ry4V-867" value="설문지" style="strokeColor=#82b366;shadow=1;strokeWidth=1;rounded=1;absoluteArcSize=1;arcSize=2;fontStyle=1;fillColor=#d5e8d4;" vertex="1" parent="2O25wpToIRTkwOV_ry4V-793">
          <mxGeometry x="621.25" y="1704" width="260" height="30" as="geometry" />
        </mxCell>
        <mxCell id="2O25wpToIRTkwOV_ry4V-873" value="ODCA" style="strokeColor=#82b366;shadow=1;strokeWidth=1;rounded=1;absoluteArcSize=1;arcSize=2;fontStyle=1;fillColor=#d5e8d4;" vertex="1" parent="2O25wpToIRTkwOV_ry4V-793">
          <mxGeometry x="622.5" y="1840" width="260" height="33" as="geometry" />
        </mxCell>
        <mxCell id="2O25wpToIRTkwOV_ry4V-875" value="개방형 질문" style="strokeColor=#82b366;shadow=1;strokeWidth=1;rounded=1;absoluteArcSize=1;arcSize=2;fontStyle=1;fillColor=#d5e8d4;" vertex="1" parent="2O25wpToIRTkwOV_ry4V-793">
          <mxGeometry x="622.5" y="1883" width="260" height="30" as="geometry" />
        </mxCell>
        <mxCell id="2O25wpToIRTkwOV_ry4V-967" value="평가" parent="0" />
        <mxCell id="2O25wpToIRTkwOV_ry4V-968" value="나이, 성별, 교육수준 (최고학력, 전공)" style="strokeColor=#dddddd;shadow=1;strokeWidth=1;rounded=1;absoluteArcSize=1;arcSize=2;fontStyle=1;imageHeight=21;" vertex="1" parent="2O25wpToIRTkwOV_ry4V-967">
          <mxGeometry x="1066.25" y="256" width="260" height="30" as="geometry" />
        </mxCell>
        <mxCell id="2O25wpToIRTkwOV_ry4V-969" value="추가 설문할 내용(목표 설정 습관)" style="strokeColor=#dddddd;shadow=1;strokeWidth=1;rounded=1;absoluteArcSize=1;arcSize=2;fontStyle=1;imageHeight=21;" vertex="1" parent="2O25wpToIRTkwOV_ry4V-967">
          <mxGeometry x="1066.25" y="286" width="260" height="30" as="geometry" />
        </mxCell>
        <mxCell id="2O25wpToIRTkwOV_ry4V-970" value="확산과 삼투에 대한 지식 수준 확인" style="strokeColor=#dddddd;shadow=1;strokeWidth=1;rounded=1;absoluteArcSize=1;arcSize=2;fontStyle=1" vertex="1" parent="2O25wpToIRTkwOV_ry4V-967">
          <mxGeometry x="1060" y="504" width="260" height="44" as="geometry" />
        </mxCell>
        <mxCell id="2O25wpToIRTkwOV_ry4V-971" value="과제에 대한&#xa;&#xa;과제 주제에 대한 관심 수준(1개 항목)&#xa;과제 주제에 대한 사전 지식(5개 항목)&#xa;과제를 완료하는 데 예상되는 난이도(5개 항목)&#xa;과제의 사전 결정 가능성(7개 항목)" style="shadow=1;strokeWidth=1;rounded=1;absoluteArcSize=1;arcSize=2;fontStyle=1;strokeColor=none;" vertex="1" parent="2O25wpToIRTkwOV_ry4V-967">
          <mxGeometry x="1063.75" y="721" width="260" height="135" as="geometry" />
        </mxCell>
        <mxCell id="2O25wpToIRTkwOV_ry4V-972" value="과제에 대한&#xa;&#xa;관심 증가 수준(1개 항목)&#xa;지식 증가(5개 항목)&#xa;만족도(4개 항목)&#xa;난이도(5개 항목)" style="strokeColor=#dddddd;shadow=1;strokeWidth=1;rounded=1;absoluteArcSize=1;arcSize=2;fontStyle=1" vertex="1" parent="2O25wpToIRTkwOV_ry4V-967">
          <mxGeometry x="1060" y="1655" width="260" height="130" as="geometry" />
        </mxCell>
        <mxCell id="2O25wpToIRTkwOV_ry4V-973" value="행동" style="strokeColor=#dddddd;shadow=1;strokeWidth=1;rounded=1;absoluteArcSize=1;arcSize=2;fontStyle=1" vertex="1" parent="2O25wpToIRTkwOV_ry4V-967">
          <mxGeometry x="1071.25" y="1521" width="260" height="30" as="geometry" />
        </mxCell>
        <mxCell id="2O25wpToIRTkwOV_ry4V-974" value="행동 의도" style="strokeColor=#dddddd;shadow=1;strokeWidth=1;rounded=1;absoluteArcSize=1;arcSize=2;fontStyle=1" vertex="1" parent="2O25wpToIRTkwOV_ry4V-967">
          <mxGeometry x="1073.75" y="1561" width="260" height="30" as="geometry" />
        </mxCell>
        <mxCell id="2O25wpToIRTkwOV_ry4V-975" value="(학업 성과) 사전-사후 비교: 향상된 지식 평가" style="strokeColor=#dddddd;shadow=1;strokeWidth=1;rounded=1;absoluteArcSize=1;arcSize=2;fontStyle=1" vertex="1" parent="2O25wpToIRTkwOV_ry4V-967">
          <mxGeometry x="1061.25" y="1841" width="260" height="30" as="geometry" />
        </mxCell>
        <mxCell id="2O25wpToIRTkwOV_ry4V-976" value="(학업 성과) 얼마나 깊이 있게 잘 학습했는지" style="strokeColor=#dddddd;shadow=1;strokeWidth=1;rounded=1;absoluteArcSize=1;arcSize=2;fontStyle=1" vertex="1" parent="2O25wpToIRTkwOV_ry4V-967">
          <mxGeometry x="1063.75" y="1884" width="260" height="29" as="geometry" />
        </mxCell>
        <mxCell id="2O25wpToIRTkwOV_ry4V-977" value="하위 목표 퀄리티" style="strokeColor=#dddddd;shadow=1;strokeWidth=1;rounded=1;absoluteArcSize=1;arcSize=2;fontStyle=1" vertex="1" parent="2O25wpToIRTkwOV_ry4V-967">
          <mxGeometry x="1063.75" y="1291" width="260" height="30" as="geometry" />
        </mxCell>
        <mxCell id="2O25wpToIRTkwOV_ry4V-778" value="분석" parent="0" />
        <mxCell id="2O25wpToIRTkwOV_ry4V-978" value="" style="strokeColor=#dddddd;shadow=1;strokeWidth=1;rounded=1;absoluteArcSize=1;arcSize=2;fontStyle=1;fontSize=13;" vertex="1" parent="2O25wpToIRTkwOV_ry4V-778">
          <mxGeometry x="1450" y="460" width="470" height="430" as="geometry" />
        </mxCell>
        <mxCell id="2O25wpToIRTkwOV_ry4V-979" style="edgeStyle=orthogonalEdgeStyle;rounded=0;orthogonalLoop=1;jettySize=auto;html=1;exitX=1;exitY=0.75;exitDx=0;exitDy=0;entryX=0;entryY=0.75;entryDx=0;entryDy=0;strokeColor=#00FF00;strokeWidth=3;" edge="1" parent="2O25wpToIRTkwOV_ry4V-778" target="2O25wpToIRTkwOV_ry4V-989">
          <mxGeometry relative="1" as="geometry">
            <mxPoint x="1355" y="1910.625" as="sourcePoint" />
            <Array as="points">
              <mxPoint x="1420" y="1911" />
              <mxPoint x="1420" y="1637" />
            </Array>
          </mxGeometry>
        </mxCell>
        <mxCell id="2O25wpToIRTkwOV_ry4V-980" style="edgeStyle=orthogonalEdgeStyle;rounded=0;orthogonalLoop=1;jettySize=auto;html=1;exitX=1;exitY=0.5;exitDx=0;exitDy=0;entryX=0;entryY=0.75;entryDx=0;entryDy=0;strokeWidth=3;strokeColor=#3333FF;" edge="1" parent="2O25wpToIRTkwOV_ry4V-778" target="2O25wpToIRTkwOV_ry4V-988">
          <mxGeometry relative="1" as="geometry">
            <mxPoint x="1355" y="1560" as="sourcePoint" />
            <Array as="points">
              <mxPoint x="1390" y="1560" />
              <mxPoint x="1390" y="815" />
            </Array>
          </mxGeometry>
        </mxCell>
        <mxCell id="2O25wpToIRTkwOV_ry4V-981" style="edgeStyle=orthogonalEdgeStyle;rounded=0;orthogonalLoop=1;jettySize=auto;html=1;exitX=1;exitY=0.5;exitDx=0;exitDy=0;entryX=0;entryY=0.5;entryDx=0;entryDy=0;strokeColor=#00FF00;strokeWidth=3;" edge="1" parent="2O25wpToIRTkwOV_ry4V-778" target="2O25wpToIRTkwOV_ry4V-989">
          <mxGeometry relative="1" as="geometry">
            <mxPoint x="1355" y="1325" as="sourcePoint" />
          </mxGeometry>
        </mxCell>
        <mxCell id="2O25wpToIRTkwOV_ry4V-982" style="edgeStyle=orthogonalEdgeStyle;rounded=0;orthogonalLoop=1;jettySize=auto;html=1;exitX=1;exitY=0.5;exitDx=0;exitDy=0;entryX=0;entryY=0.75;entryDx=0;entryDy=0;strokeWidth=3;" edge="1" parent="2O25wpToIRTkwOV_ry4V-778" target="2O25wpToIRTkwOV_ry4V-986">
          <mxGeometry relative="1" as="geometry">
            <mxPoint x="1345" y="525" as="sourcePoint" />
          </mxGeometry>
        </mxCell>
        <mxCell id="2O25wpToIRTkwOV_ry4V-983" style="edgeStyle=orthogonalEdgeStyle;rounded=0;orthogonalLoop=1;jettySize=auto;html=1;exitX=1;exitY=0.75;exitDx=0;exitDy=0;entryX=0;entryY=0.5;entryDx=0;entryDy=0;strokeWidth=3;strokeColor=#FF0080;" edge="1" parent="2O25wpToIRTkwOV_ry4V-778" target="2O25wpToIRTkwOV_ry4V-987">
          <mxGeometry relative="1" as="geometry">
            <mxPoint x="1345" y="547.5" as="sourcePoint" />
            <Array as="points">
              <mxPoint x="1430" y="547" />
              <mxPoint x="1430" y="590" />
            </Array>
          </mxGeometry>
        </mxCell>
        <mxCell id="2O25wpToIRTkwOV_ry4V-984" style="edgeStyle=orthogonalEdgeStyle;rounded=0;orthogonalLoop=1;jettySize=auto;html=1;exitX=1;exitY=0.5;exitDx=0;exitDy=0;entryX=0;entryY=0.5;entryDx=0;entryDy=0;strokeWidth=3;" edge="1" parent="2O25wpToIRTkwOV_ry4V-778" target="2O25wpToIRTkwOV_ry4V-986">
          <mxGeometry relative="1" as="geometry">
            <mxPoint x="1340" y="285" as="sourcePoint" />
          </mxGeometry>
        </mxCell>
        <mxCell id="2O25wpToIRTkwOV_ry4V-985" style="edgeStyle=orthogonalEdgeStyle;rounded=0;orthogonalLoop=1;jettySize=auto;html=1;strokeWidth=3;entryX=0;entryY=0.75;entryDx=0;entryDy=0;exitX=1;exitY=0.5;exitDx=0;exitDy=0;strokeColor=#FF3399;" edge="1" parent="2O25wpToIRTkwOV_ry4V-778" target="2O25wpToIRTkwOV_ry4V-987">
          <mxGeometry relative="1" as="geometry">
            <mxPoint x="1355" y="1881.25" as="sourcePoint" />
            <mxPoint x="1430" y="670" as="targetPoint" />
            <Array as="points">
              <mxPoint x="1430" y="1881" />
              <mxPoint x="1430" y="625" />
            </Array>
          </mxGeometry>
        </mxCell>
        <mxCell id="2O25wpToIRTkwOV_ry4V-986" value="통계적 차이 검증" style="strokeColor=#d6b656;shadow=1;strokeWidth=1;rounded=1;absoluteArcSize=1;arcSize=2;fontStyle=1;imageHeight=21;fillColor=#fff2cc;fontSize=18;" vertex="1" parent="2O25wpToIRTkwOV_ry4V-778">
          <mxGeometry x="1482.5" y="250" width="400" height="70" as="geometry" />
        </mxCell>
        <mxCell id="2O25wpToIRTkwOV_ry4V-987" value="RQ1&#xa;(활용 도구 차이가 )하위목표 평가가&#xa;학습 성과에 미치는 영향" style="strokeColor=#b85450;shadow=1;strokeWidth=1;rounded=1;absoluteArcSize=1;arcSize=2;fontStyle=1;imageHeight=21;fillColor=#f8cecc;fontSize=18;" vertex="1" parent="2O25wpToIRTkwOV_ry4V-778">
          <mxGeometry x="1482.5" y="520" width="415" height="140" as="geometry" />
        </mxCell>
        <mxCell id="2O25wpToIRTkwOV_ry4V-988" value="RQ2&#xa;(활용 도구 차이가 )하위목표 평가가&#xa;SRL에 미치는 영향" style="strokeColor=#6c8ebf;shadow=1;strokeWidth=1;rounded=1;absoluteArcSize=1;arcSize=2;fontStyle=1;imageHeight=21;fillColor=#dae8fc;fontSize=18;" vertex="1" parent="2O25wpToIRTkwOV_ry4V-778">
          <mxGeometry x="1482.5" y="710" width="415" height="140" as="geometry" />
        </mxCell>
        <mxCell id="2O25wpToIRTkwOV_ry4V-989" value="추가 질적 분석&#xa;하위 목표 퀄리티 -&gt; 학업 성과" style="strokeColor=#82b366;shadow=1;strokeWidth=1;rounded=1;absoluteArcSize=1;arcSize=2;fontStyle=1;imageHeight=21;fillColor=#d5e8d4;fontSize=18;" vertex="1" parent="2O25wpToIRTkwOV_ry4V-778">
          <mxGeometry x="1490" y="1584" width="400" height="70" as="geometry" />
        </mxCell>
        <mxCell id="2O25wpToIRTkwOV_ry4V-990" value="&lt;div style=&quot;text-align: center;&quot;&gt;&lt;span class=&quot;cf0&quot;&gt;&lt;span&gt;RQ&lt;/span&gt;&lt;/span&gt;&lt;/div&gt;" style="fillColor=#f5f5f5;strokeColor=#666666;shadow=1;fontSize=14;align=left;spacingLeft=50;html=1;fontStyle=1;fontColor=#333333;" vertex="1" parent="2O25wpToIRTkwOV_ry4V-778">
          <mxGeometry x="1630" y="440" width="120" height="40" as="geometry" />
        </mxCell>
      </root>
    </mxGraphModel>
  </diagram>
</mxfile>
